<svg id="Layer_1" data-name="Layer 1" xmlns="http://www.w3.org/2000/svg" viewBox="0 0 565 565"><defs><style>.cls-1{fill:#012169;}.cls-2{fill:#011036;}.cls-3{fill:#385eb5;}.cls-4{fill:#203b6d;}.cls-5{fill:#0238b5;}.cls-6{fill:#fff;}</style></defs><path class="cls-1" d="M282.3,283.41,48.93,435C-34.77,306.07,1.86,133.74,130.75,50,177.15,19.91,227,5.15,282.3,5.15Z"/><path class="cls-2" d="M282.3,283.41l122,250.1c-127.07,62-278.34,20-355.35-98.55Z"/><path class="cls-3" d="M282.3,283.41,559.89,264C568,380.51,509.26,482.31,404.28,533.51Z"/><path class="cls-4" d="M282.3,283.41,457.42,67.16c62.1,50.29,96.89,117.12,102.47,196.84Z"/><path class="cls-5" d="M282.3,283.41V5.15c67.62,0,122.57,19.45,175.12,62Z"/><path class="cls-6" d="M113.09,234.28c0,3.88-3.44,6-9.83,6-4.26,0-8-1-10.36-2.77l1.66-3.62a14.61,14.61,0,0,0,8.64,2.45c3.47,0,5.34-.87,5.34-2.54,0-1.4-1.11-2-3.71-2H98.44V228h5.69c2.54,0,3.62-.58,3.62-2,0-1.54-1.58-2.36-4.64-2.36a14.47,14.47,0,0,0-7.7,2.07l-1.58-3.56a17.21,17.21,0,0,1,9.43-2.45c5.89,0,9,2,9,5.63a4.2,4.2,0,0,1-3.21,4.26C111.75,230.34,113.09,231.89,113.09,234.28Z"/><path class="cls-6" d="M136.57,235.56h-2.92v4.35h-4.49v-4.35H115.65v-4.49l13-11h5v11.64h2.92Zm-7.41-3.85v-7.17l-8.52,7.17Z"/><path class="cls-6" d="M138.73,225.41c0-3.27,2.39-5.54,5.8-5.54s5.81,2.27,5.81,5.54S148,231,144.53,231,138.73,228.68,138.73,225.41Zm8.6,0a2.8,2.8,0,1,0-2.8,3A2.73,2.73,0,0,0,147.33,225.41Zm9-5.34h3.06l-12.16,19.84h-3.07Zm-3.07,14.5c0-3.27,2.4-5.54,5.81-5.54s5.81,2.27,5.81,5.54a5.82,5.82,0,0,1-11.62,0Zm8.61,0a2.8,2.8,0,1,0-2.8,3A2.73,2.73,0,0,0,161.92,234.57Z"/><path class="cls-6" d="M195.33,451.05h14.41v3.85h-19v-2c0-6.21,2.6-8.08,9.34-9.48,3.53-.73,5.16-1.11,5.16-2.63,0-1.34-1.31-2.18-4.28-2.18a14.38,14.38,0,0,0-7.65,2.1l-1.63-3.62a16.52,16.52,0,0,1,9.16-2.42c5.66,0,9,1.92,9,6.27s-3.36,5.08-8.67,6.22C197.34,448,195.65,448.51,195.33,451.05Z"/><path class="cls-6" d="M232.55,449.27c0,3.88-3.44,6-9.83,6-4.26,0-8-1-10.36-2.77l1.66-3.62a14.7,14.7,0,0,0,8.64,2.45c3.47,0,5.34-.88,5.34-2.54,0-1.4-1.11-2-3.71-2H217.9V443h5.69c2.54,0,3.62-.58,3.62-1.95,0-1.55-1.57-2.36-4.64-2.36a14.47,14.47,0,0,0-7.7,2.07l-1.58-3.56a17.21,17.21,0,0,1,9.43-2.45c5.89,0,9,2,9,5.63a4.2,4.2,0,0,1-3.21,4.26C231.21,445.33,232.55,446.87,232.55,449.27Z"/><path class="cls-6" d="M235,440.4a5.43,5.43,0,0,1,5.8-5.55c3.42,0,5.81,2.28,5.81,5.55s-2.39,5.54-5.81,5.54S235,443.67,235,440.4Zm8.61,0a2.81,2.81,0,1,0-2.81,2.94A2.74,2.74,0,0,0,243.58,440.4Zm9-5.34h3.06L243.52,454.9h-3.07Zm-3.06,14.5c0-3.27,2.39-5.54,5.8-5.54s5.81,2.27,5.81,5.54-2.39,5.54-5.81,5.54S249.56,452.83,249.56,449.56Zm8.6,0a2.8,2.8,0,1,0-2.8,2.94A2.73,2.73,0,0,0,258.16,449.56Z"/><path class="cls-6" d="M407.6,371.8v3.85H391.81V371.8h5.64V360.08l-5.64,2.65v-4.26l5.64-2.65h4.49v16Z"/><path class="cls-6" d="M430,365.56c0,6.36-4.61,10.44-11.82,10.44a14.59,14.59,0,0,1-7.49-1.8l1.43-3.62a11,11,0,0,0,5.8,1.49c4.67,0,7.53-2.48,7.53-6.6v-.29a10.37,10.37,0,0,1-8.08,3.38c-4.7,0-7.56-2.33-7.56-6.12,0-4.26,3.62-7,9.25-7C425.89,355.46,430,359.29,430,365.56Zm-5.19-3.18c-1-1.93-3-3-5.81-3s-4.64,1.14-4.64,2.89,1.32,2.48,4,2.48A9.94,9.94,0,0,0,424.84,362.38Z"/><path class="cls-6" d="M432.68,361.15c0-3.26,2.4-5.54,5.81-5.54a5.55,5.55,0,1,1-5.81,5.54Zm8.61,0a2.8,2.8,0,1,0-2.8,3A2.73,2.73,0,0,0,441.29,361.15Zm9-5.33h3.07l-12.17,19.83h-3.06Zm-3.06,14.5c0-3.27,2.39-5.55,5.81-5.55a5.55,5.55,0,1,1,0,11.09C449.66,375.86,447.27,373.58,447.27,370.32Zm8.61,0a2.8,2.8,0,1,0-2.8,2.94A2.73,2.73,0,0,0,455.88,370.32Z"/><path class="cls-6" d="M422,215.87v3.86H406.24v-3.86h5.63V204.15l-5.63,2.65v-4.26l5.63-2.65h4.49v16Z"/><path class="cls-6" d="M444.31,214.09c0,3.88-3.44,6-9.83,6-4.26,0-8-1-10.36-2.78l1.66-3.61a14.7,14.7,0,0,0,8.64,2.45c3.47,0,5.34-.88,5.34-2.54,0-1.4-1.11-2-3.71-2h-6.39v-3.8h5.69c2.54,0,3.62-.58,3.62-1.95,0-1.55-1.58-2.37-4.64-2.37a14.39,14.39,0,0,0-7.7,2.08L425.05,202a17.12,17.12,0,0,1,9.43-2.45c5.89,0,9,2,9,5.63a4.2,4.2,0,0,1-3.21,4.26C443,210.16,444.31,211.7,444.31,214.09Z"/><path class="cls-6" d="M446.73,205.23a5.43,5.43,0,0,1,5.8-5.55c3.42,0,5.81,2.28,5.81,5.55s-2.39,5.54-5.81,5.54A5.43,5.43,0,0,1,446.73,205.23Zm8.6,0a2.8,2.8,0,1,0-2.8,2.94A2.73,2.73,0,0,0,455.33,205.23Zm9.05-5.34h3.06l-12.16,19.84h-3.07Zm-3.06,14.5a5.43,5.43,0,0,1,5.8-5.55c3.42,0,5.81,2.28,5.81,5.55s-2.39,5.54-5.81,5.54A5.43,5.43,0,0,1,461.32,214.39Zm8.6,0a2.8,2.8,0,1,0-2.8,2.94A2.74,2.74,0,0,0,469.92,214.39Z"/><path class="cls-6" d="M325.73,121v3.85H310V121h5.63V109.27L310,111.93v-4.26l5.63-2.66h4.49v16Z"/><path class="cls-6" d="M344.63,121v3.85H328.85V121h5.63V109.27l-5.63,2.66v-4.26l5.63-2.66H339v16Z"/><path class="cls-6" d="M346.85,110.35c0-3.27,2.39-5.54,5.81-5.54s5.8,2.27,5.8,5.54a5.43,5.43,0,0,1-5.8,5.55C349.24,115.9,346.85,113.62,346.85,110.35Zm8.61,0a2.81,2.81,0,1,0-2.8,3A2.73,2.73,0,0,0,355.46,110.35Zm9-5.34h3.06L355.4,124.85h-3.07Zm-3.06,14.5a5.43,5.43,0,0,1,5.8-5.54c3.42,0,5.81,2.28,5.81,5.54s-2.39,5.55-5.81,5.55A5.43,5.43,0,0,1,361.44,119.51Zm8.6,0a2.8,2.8,0,1,0-2.8,2.95A2.73,2.73,0,0,0,370,119.51Z"/></svg>