<svg id="Layer_1" data-name="Layer 1" xmlns="http://www.w3.org/2000/svg" viewBox="0 0 565 565"><defs><style>.cls-1{fill:#0238b5;}.cls-2{fill:#385eb5;}.cls-3{fill:#203b6d;}.cls-4{fill:#011036;}.cls-5{fill:#012169;}.cls-6{fill:#fff;}</style></defs><path class="cls-1" d="M283.59,282.58,210.76,10.76a278.6,278.6,0,0,1,72.83-9.59Z"/><path class="cls-2" d="M283.59,282.58,35.12,150.47C73.07,79.11,132.7,31.68,210.76,10.76Z"/><path class="cls-3" d="M283.59,282.58,55.93,448C-9.84,357.46-17.41,249.27,35.12,150.47Z"/><path class="cls-4" d="M283.59,282.58,464.48,498.15C345.42,598.05,167.92,582.52,68,463.47,64,458.71,59.58,453,55.93,448Z"/><path class="cls-5" d="M283.59,282.58V1.17C439,1.17,565,127.16,565,282.58c0,87-33.85,159.63-100.52,215.57Z"/><path class="cls-6" d="M254.16,70.22h-2.3v3.43h-3.55V70.22H237.67V66.68L248,58h3.91v9.17h2.3Zm-5.85-3V61.53l-6.71,5.65Z"/><path class="cls-6" d="M255.86,62.22a4.58,4.58,0,1,1,4.58,4.37A4.28,4.28,0,0,1,255.86,62.22Zm6.78,0a2.21,2.21,0,1,0-2.2,2.32A2.15,2.15,0,0,0,262.64,62.22ZM269.77,58h2.42L262.6,73.65h-2.42Zm-2.41,11.43a4.58,4.58,0,1,1,4.57,4.37A4.28,4.28,0,0,1,267.36,69.44Zm6.78,0a2.21,2.21,0,1,0-2.21,2.32A2.16,2.16,0,0,0,274.14,69.44Z"/><path class="cls-6" d="M137.59,138.62v3H125.15v-3h4.44v-9.24l-4.44,2.09v-3.36l4.44-2.09h3.54v12.6Z"/><path class="cls-6" d="M155.16,137.22c0,3.06-2.71,4.71-7.75,4.71-3.35,0-6.3-.78-8.16-2.18l1.31-2.85a11.52,11.52,0,0,0,6.81,1.93c2.73,0,4.21-.69,4.21-2,0-1.11-.88-1.59-2.92-1.59h-5v-3h4.48c2,0,2.85-.46,2.85-1.54s-1.24-1.86-3.65-1.86a11.37,11.37,0,0,0-6.07,1.63l-1.24-2.8a13.48,13.48,0,0,1,7.42-1.94c4.65,0,7.13,1.57,7.13,4.44a3.3,3.3,0,0,1-2.53,3.36C154.1,134.11,155.16,135.33,155.16,137.22Z"/><path class="cls-6" d="M157.08,130.23a4.58,4.58,0,1,1,4.57,4.37A4.28,4.28,0,0,1,157.08,130.23Zm6.78,0a2.21,2.21,0,1,0-2.21,2.32A2.16,2.16,0,0,0,163.86,130.23ZM171,126h2.41l-9.59,15.64H161.4Zm-2.42,11.43a4.58,4.58,0,1,1,4.58,4.37A4.28,4.28,0,0,1,168.57,137.45Zm6.79,0a2.21,2.21,0,1,0-2.21,2.32A2.16,2.16,0,0,0,175.36,137.45Z"/><path class="cls-6" d="M78.71,296.19v3H66.27v-3h4.44V287L66.27,289v-3.35l4.44-2.1h3.54v12.6Z"/><path class="cls-6" d="M97,294.93c0,2.92-3,4.57-8.21,4.57s-8.21-1.65-8.21-4.57c0-1.91,1.29-3.17,3.72-3.77-2-.62-3.1-1.82-3.1-3.52,0-2.76,2.74-4.32,7.59-4.32s7.59,1.56,7.59,4.32c0,1.7-1.09,2.9-3.11,3.52C95.71,291.76,97,293,97,294.93Zm-3.59-.37c0-1.17-1.29-1.75-3.89-1.75H88.05c-2.6,0-3.88.58-3.88,1.75s1.51,1.84,4.62,1.84S93.41,295.8,93.41,294.56Zm-8.62-6.39c0,1.08,1.15,1.65,3.26,1.65h1.47c2.12,0,3.27-.57,3.27-1.65s-1.31-1.75-4-1.75S84.79,287,84.79,288.17Z"/><path class="cls-6" d="M98.89,287.8a4.58,4.58,0,1,1,4.57,4.37A4.28,4.28,0,0,1,98.89,287.8Zm6.78,0a2.21,2.21,0,1,0-2.21,2.32A2.16,2.16,0,0,0,105.67,287.8Zm7.13-4.21h2.41l-9.59,15.64h-2.41ZM110.38,295a4.59,4.59,0,1,1,4.58,4.37A4.29,4.29,0,0,1,110.38,295Zm6.79,0a2.21,2.21,0,1,0-2.21,2.32A2.16,2.16,0,0,0,117.17,295Z"/><path class="cls-6" d="M231.28,444.12h11.36v3H227.69v-1.54c0-4.9,2.05-6.37,7.36-7.47,2.78-.58,4.07-.88,4.07-2.07s-1-1.73-3.38-1.73a11.32,11.32,0,0,0-6,1.66l-1.28-2.85a13,13,0,0,1,7.22-1.91c4.46,0,7.06,1.52,7.06,4.94s-2.65,4-6.83,4.9C232.87,441.72,231.53,442.12,231.28,444.12Z"/><path class="cls-6" d="M261,441.93c0,3.36-2.85,5.5-7.29,5.5-5.36,0-8.62-3-8.62-8s3.63-8.23,9.31-8.23a11.46,11.46,0,0,1,5.91,1.42l-1.13,2.86a8.64,8.64,0,0,0-4.57-1.18c-3.68,0-5.93,2-5.93,5.2v.23A8.18,8.18,0,0,1,255,437.1C258.74,437.1,261,438.94,261,441.93Zm-3.59.12c0-1.31-1-2-3.12-2a7.78,7.78,0,0,0-5.11,1.89c.76,1.52,2.35,2.34,4.58,2.34S257.4,443.43,257.4,442.05Z"/><path class="cls-6" d="M262.86,435.72a4.58,4.58,0,1,1,4.57,4.37A4.28,4.28,0,0,1,262.86,435.72Zm6.78,0a2.21,2.21,0,1,0-2.21,2.32A2.15,2.15,0,0,0,269.64,435.72Zm7.13-4.21h2.41l-9.58,15.64h-2.42Zm-2.41,11.43a4.58,4.58,0,1,1,4.57,4.37A4.28,4.28,0,0,1,274.36,442.94Zm6.78,0a2.21,2.21,0,1,0-2.21,2.33A2.16,2.16,0,0,0,281.14,442.94Z"/><path class="cls-6" d="M418.05,229.24c0,3.06-2.71,4.71-7.75,4.71-3.35,0-6.3-.78-8.16-2.18l1.31-2.85a11.62,11.62,0,0,0,6.81,1.93c2.74,0,4.21-.69,4.21-2,0-1.11-.88-1.59-2.92-1.59h-5v-3H411c2,0,2.85-.46,2.85-1.54s-1.25-1.86-3.66-1.86a11.37,11.37,0,0,0-6.07,1.63l-1.24-2.81a13.56,13.56,0,0,1,7.42-1.93c4.65,0,7.13,1.57,7.13,4.44a3.3,3.3,0,0,1-2.53,3.36C417,226.13,418.05,227.35,418.05,229.24Z"/><path class="cls-6" d="M436,225.72c0,5-3.64,8.23-9.32,8.23a11.45,11.45,0,0,1-5.9-1.42l1.12-2.86a8.65,8.65,0,0,0,4.58,1.18c3.68,0,5.93-2,5.93-5.2v-.23a8.2,8.2,0,0,1-6.37,2.67c-3.7,0-5.95-1.84-5.95-4.83,0-3.36,2.85-5.5,7.29-5.5C432.68,217.76,436,220.78,436,225.72Zm-4.1-2.51c-.75-1.51-2.34-2.34-4.57-2.34s-3.66.89-3.66,2.27,1,2,3.13,2A7.76,7.76,0,0,0,431.85,223.21Z"/><path class="cls-6" d="M438,222.25a4.59,4.59,0,1,1,4.58,4.37A4.28,4.28,0,0,1,438,222.25Zm6.79,0a2.21,2.21,0,1,0-2.21,2.32A2.16,2.16,0,0,0,444.83,222.25ZM452,218h2.41l-9.59,15.64h-2.41Zm-2.42,11.43a4.58,4.58,0,1,1,4.58,4.37A4.28,4.28,0,0,1,449.54,229.47Zm6.79,0a2.21,2.21,0,1,0-2.21,2.32A2.16,2.16,0,0,0,456.33,229.47Z"/></svg>